<?xml version="1.0" encoding="utf-8"?>

<svg version="1.1" id="Layer_1" xmlns="http://www.w3.org/2000/svg" xmlns:xlink="http://www.w3.org/1999/xlink" x="0px" y="0px" viewBox="0 0 179.1 66.6" style="enable-background:new 0 0 179.1 66.6;" xml:space="preserve">

<g id="Layer_2_00000070114950737204497980000016463071427261571485_">
&#x9;<g id="Layer_1-2_00000174598045187879582260000004420166546522370695_">
&#x9;&#x9;<g class="st0">
&#x9;&#x9;&#x9;<path class="st1" d="M9.9,56.8l-1.2,3.9H6.2l-2.8-8.8h3.1l1.3,4.3h0.1L9,51.9h2l1.1,4.3H12l1.3-4.3h3.1l-2.9,8.8H11L9.9,56.8&#xA;&#x9;&#x9;&#x9;&#x9;L9.9,56.8z"></path>
&#x9;&#x9;&#x9;<path class="st1" d="M24.1,56.8l-1.2,3.9h-2.5l-2.8-8.8h3.1l1.3,4.3h0.1l1.1-4.3h2l1.1,4.3h0.1l1.3-4.3h3.1l-2.9,8.8h-2.5&#xA;&#x9;&#x9;&#x9;&#x9;L24.1,56.8L24.1,56.8z"></path>
&#x9;&#x9;&#x9;<path class="st1" d="M38.3,56.8l-1.2,3.9h-2.5l-2.8-8.8h3.1l1.3,4.3h0.1l1.1-4.3h2l1.1,4.3h0.1l1.3-4.3h3.1L42,60.7h-2.5&#xA;&#x9;&#x9;&#x9;&#x9;L38.3,56.8L38.3,56.8z"></path>
&#x9;&#x9;&#x9;<path class="st1" d="M46.1,59.3c0-0.2,0-0.4,0.1-0.6s0.2-0.4,0.3-0.5s0.3-0.3,0.5-0.3c0.2-0.1,0.4-0.1,0.6-0.1s0.4,0,0.6,0.1&#xA;&#x9;&#x9;&#x9;&#x9;s0.4,0.2,0.5,0.3c0.1,0.1,0.3,0.3,0.3,0.5s0.1,0.4,0.1,0.6s0,0.4-0.1,0.6s-0.2,0.4-0.3,0.5c-0.1,0.1-0.3,0.3-0.5,0.3&#xA;&#x9;&#x9;&#x9;&#x9;c-0.2,0.1-0.4,0.1-0.6,0.1s-0.4,0-0.6-0.1s-0.4-0.2-0.5-0.3c-0.1-0.1-0.3-0.3-0.3-0.5C46.1,59.7,46.1,59.5,46.1,59.3z"></path>
&#x9;&#x9;&#x9;<path class="st1" d="M52.1,57.7c0.4,0.2,0.9,0.4,1.5,0.6s1.2,0.3,1.8,0.3c0.3,0,0.6,0,0.7-0.1s0.2-0.2,0.2-0.3&#xA;&#x9;&#x9;&#x9;&#x9;c0-0.1-0.1-0.2-0.4-0.3c-0.2-0.1-0.6-0.2-1.1-0.4c-0.6-0.2-1.1-0.4-1.5-0.6s-0.7-0.4-0.9-0.7c-0.2-0.2-0.4-0.5-0.5-0.8&#xA;&#x9;&#x9;&#x9;&#x9;s-0.1-0.6-0.1-0.9s0.1-0.7,0.2-1c0.2-0.3,0.4-0.6,0.7-0.9c0.3-0.3,0.7-0.5,1.1-0.6c0.4-0.2,1-0.2,1.5-0.2c0.8,0,1.4,0.1,2.1,0.2&#xA;&#x9;&#x9;&#x9;&#x9;c0.6,0.1,1.2,0.3,1.6,0.6l-0.3,2.3c-0.7-0.3-1.3-0.5-1.8-0.6s-0.9-0.2-1.3-0.2c-0.3,0-0.4,0-0.5,0.1s-0.2,0.1-0.2,0.2&#xA;&#x9;&#x9;&#x9;&#x9;s0,0.1,0.1,0.2c0,0,0.1,0.1,0.2,0.2s0.3,0.1,0.5,0.2s0.4,0.1,0.7,0.2c0.6,0.2,1.1,0.4,1.5,0.6s0.7,0.4,0.9,0.7&#xA;&#x9;&#x9;&#x9;&#x9;c0.2,0.3,0.4,0.5,0.5,0.8s0.1,0.6,0.1,0.9c0,0.4-0.1,0.7-0.3,1.1s-0.5,0.6-0.8,0.9s-0.8,0.5-1.3,0.6S55.8,61,55.2,61&#xA;&#x9;&#x9;&#x9;&#x9;c-0.4,0-0.8,0-1.2-0.1c-0.4-0.1-0.7-0.1-1.1-0.2c-0.3-0.1-0.6-0.2-0.9-0.3c-0.3-0.1-0.5-0.2-0.6-0.4L52.1,57.7z"></path>
&#x9;&#x9;&#x9;<path class="st1" d="M68.5,57.6l0.9,2.2c-0.4,0.3-0.9,0.6-1.5,0.8s-1.2,0.3-1.9,0.3c-0.8,0-1.5-0.1-2.1-0.4&#xA;&#x9;&#x9;&#x9;&#x9;c-0.6-0.2-1.1-0.6-1.6-1c-0.4-0.4-0.8-0.9-1-1.4S61,57,61,56.3c0-0.8,0.1-1.4,0.4-2s0.6-1.1,1.1-1.5s1-0.7,1.6-0.9&#xA;&#x9;&#x9;&#x9;&#x9;s1.2-0.3,1.9-0.3c0.7,0,1.4,0.1,2,0.3c0.6,0.2,1,0.5,1.4,0.8L68.5,55h-0.1c-0.2-0.2-0.5-0.3-0.9-0.5s-0.8-0.2-1.2-0.2&#xA;&#x9;&#x9;&#x9;&#x9;c-0.3,0-0.5,0-0.8,0.1c-0.2,0.1-0.5,0.2-0.7,0.4c-0.2,0.2-0.3,0.4-0.5,0.6s-0.2,0.5-0.2,0.9c0,0.3,0.1,0.6,0.2,0.8&#xA;&#x9;&#x9;&#x9;&#x9;c0.1,0.2,0.3,0.4,0.4,0.6c0.2,0.2,0.4,0.3,0.6,0.4s0.5,0.1,0.8,0.1c0.4,0,0.8-0.1,1.2-0.2C67.8,58,68.1,57.8,68.5,57.6L68.5,57.6&#xA;&#x9;&#x9;&#x9;&#x9;z"></path>
&#x9;&#x9;&#x9;<path class="st1" d="M80.5,60.7h-3.1v-3.1h-2.7v3.1h-3.1v-8.8h3.1V55h2.7v-3.1h3.1V60.7z"></path>
&#x9;&#x9;&#x9;<path class="st1" d="M88.8,59.6H86l-0.4,1.1h-3.3l3.7-8.8h2.7l3.9,8.8h-3.3L88.8,59.6z M86.5,57.5h1.7l-0.8-2.2h-0.1L86.5,57.5z"></path>
&#x9;&#x9;&#x9;<path class="st1" d="M94.2,60.7v-8.8h3.9c0.7,0,1.3,0.1,1.9,0.3c0.6,0.2,1.1,0.5,1.6,0.9c0.4,0.4,0.8,0.9,1,1.4&#xA;&#x9;&#x9;&#x9;&#x9;c0.3,0.5,0.4,1.2,0.4,1.8c0,0.7-0.1,1.3-0.4,1.9c-0.2,0.5-0.6,1-1,1.4s-1,0.7-1.6,0.8c-0.6,0.2-1.3,0.3-2,0.3L94.2,60.7&#xA;&#x9;&#x9;&#x9;&#x9;L94.2,60.7z M98.1,58.2c0.5,0,0.9-0.2,1.2-0.5s0.5-0.8,0.5-1.4c0-0.3-0.1-0.6-0.2-0.8c-0.1-0.2-0.2-0.4-0.4-0.6&#xA;&#x9;&#x9;&#x9;&#x9;c-0.2-0.2-0.3-0.3-0.5-0.4s-0.4-0.1-0.6-0.1h-0.7v3.8H98.1z"></path>
&#x9;&#x9;&#x9;<path class="st1" d="M108.2,58.2h3.5v2.5H105v-8.8h3.1L108.2,58.2L108.2,58.2z"></path>
&#x9;&#x9;&#x9;<path class="st1" d="M119.5,59.6h-2.8l-0.4,1.1H113l3.8-8.8h2.7l3.9,8.8H120L119.5,59.6z M117.2,57.5h1.7l-0.8-2.2h-0.1&#xA;&#x9;&#x9;&#x9;&#x9;L117.2,57.5z"></path>
&#x9;&#x9;&#x9;<path class="st1" d="M130,56.8l-1.2,3.9h-2.5l-2.9-8.8h3.1l1.3,4.3h0.1l1.1-4.3h2l1.1,4.3h0.1l1.3-4.3h3.1l-2.9,8.8h-2.5&#xA;&#x9;&#x9;&#x9;&#x9;L130,56.8L130,56.8z"></path>
&#x9;&#x9;&#x9;<path class="st1" d="M137.7,59.3c0-0.2,0-0.4,0.1-0.6s0.2-0.4,0.3-0.5s0.3-0.3,0.5-0.3c0.2-0.1,0.4-0.1,0.6-0.1s0.4,0,0.6,0.1&#xA;&#x9;&#x9;&#x9;&#x9;c0.2,0.1,0.4,0.2,0.5,0.3s0.3,0.3,0.3,0.5c0.1,0.2,0.1,0.4,0.1,0.6s0,0.4-0.1,0.6s-0.2,0.4-0.3,0.5s-0.3,0.3-0.5,0.3&#xA;&#x9;&#x9;&#x9;&#x9;c-0.2,0.1-0.4,0.1-0.6,0.1s-0.4,0-0.6-0.1c-0.2-0.1-0.4-0.2-0.5-0.3c-0.1-0.1-0.3-0.3-0.3-0.5C137.7,59.7,137.7,59.5,137.7,59.3z&#xA;&#x9;&#x9;&#x9;&#x9;"></path>
&#x9;&#x9;&#x9;<path class="st1" d="M150.7,57.6l0.9,2.2c-0.4,0.3-0.9,0.6-1.5,0.8s-1.2,0.3-1.9,0.3c-0.8,0-1.5-0.1-2.1-0.4&#xA;&#x9;&#x9;&#x9;&#x9;c-0.6-0.2-1.1-0.6-1.6-1c-0.4-0.4-0.8-0.9-1-1.4s-0.3-1.1-0.3-1.8c0-0.8,0.1-1.4,0.4-2s0.6-1.1,1.1-1.5s1-0.7,1.6-0.9&#xA;&#x9;&#x9;&#x9;&#x9;s1.2-0.3,1.9-0.3s1.4,0.1,2,0.3c0.6,0.2,1,0.5,1.4,0.8l-0.9,2.3h-0.1c-0.2-0.2-0.5-0.3-0.9-0.5s-0.8-0.2-1.2-0.2&#xA;&#x9;&#x9;&#x9;&#x9;c-0.3,0-0.5,0-0.8,0.1s-0.5,0.2-0.7,0.4s-0.3,0.4-0.5,0.6c-0.1,0.2-0.2,0.5-0.2,0.9c0,0.3,0.1,0.6,0.2,0.8&#xA;&#x9;&#x9;&#x9;&#x9;c0.1,0.2,0.3,0.4,0.4,0.6c0.2,0.2,0.4,0.3,0.6,0.4c0.2,0.1,0.5,0.1,0.8,0.1c0.4,0,0.8-0.1,1.2-0.2C150,58,150.3,57.8,150.7,57.6&#xA;&#x9;&#x9;&#x9;&#x9;L150.7,57.6z"></path>
&#x9;&#x9;&#x9;<path class="st1" d="M163.2,56.4c0,0.6-0.1,1.2-0.4,1.7s-0.6,1-1,1.5s-1,0.8-1.6,1c-0.6,0.3-1.3,0.4-2.1,0.4s-1.5-0.1-2.1-0.4&#xA;&#x9;&#x9;&#x9;&#x9;c-0.6-0.2-1.2-0.6-1.6-1c-0.4-0.4-0.8-0.9-1-1.5s-0.3-1.2-0.3-1.8c0-0.7,0.1-1.4,0.4-2c0.3-0.6,0.6-1.1,1.1-1.5s1-0.7,1.6-0.9&#xA;&#x9;&#x9;&#x9;&#x9;c0.6-0.2,1.3-0.3,1.9-0.3c0.7,0,1.3,0.1,1.9,0.3s1.2,0.5,1.6,0.9c0.5,0.4,0.8,0.9,1.1,1.5C163.1,55,163.2,55.7,163.2,56.4z&#xA;&#x9;&#x9;&#x9;&#x9; M159.9,56.4c0-0.3-0.1-0.6-0.2-0.9s-0.2-0.5-0.4-0.6c-0.2-0.2-0.4-0.3-0.6-0.4c-0.2-0.1-0.5-0.1-0.7-0.1s-0.5,0-0.7,0.1&#xA;&#x9;&#x9;&#x9;&#x9;s-0.4,0.2-0.6,0.4s-0.3,0.4-0.4,0.6c-0.1,0.3-0.2,0.5-0.2,0.9c0,0.6,0.2,1.1,0.5,1.4c0.3,0.4,0.8,0.5,1.4,0.5&#xA;&#x9;&#x9;&#x9;&#x9;c0.5,0,0.9-0.2,1.3-0.5C159.8,57.5,159.9,57,159.9,56.4z"></path>
&#x9;&#x9;&#x9;<path class="st1" d="M173.1,57.1l-1.7,3.7h-1.1l-1.7-3.7h-0.1l-0.5,3.7h-3l1.4-8.8h2.3l2.2,4.6h0.1l2-4.7h2.3l1.4,8.8h-3&#xA;&#x9;&#x9;&#x9;&#x9;L173.1,57.1L173.1,57.1z"></path>
&#x9;&#x9;</g>
&#x9;</g>
</g>
<g id="Layer_2_00000051342611973017267410000004207264350579482559_">
&#x9;<g id="Layer_1-2">
&#x9;&#x9;<g class="st0">
&#x9;&#x9;&#x9;<path class="st1" d="M9.8,25.4c0.7,0.6,1.5,1,2.4,1.3c0.9,0.3,1.7,0.5,2.5,0.5s1.4-0.1,1.7-0.3c0.3-0.2,0.5-0.5,0.5-0.8&#xA;&#x9;&#x9;&#x9;&#x9;c0-0.2-0.1-0.4-0.2-0.5c-0.1-0.2-0.3-0.3-0.6-0.5c-0.2-0.1-0.5-0.3-0.8-0.4s-0.6-0.3-1-0.4c-0.9-0.4-1.7-0.8-2.4-1.3&#xA;&#x9;&#x9;&#x9;&#x9;c-0.7-0.4-1.3-0.9-1.7-1.4c-0.5-0.5-0.8-1.1-1-1.7s-0.4-1.3-0.4-2.1c0-0.6,0.1-1.3,0.4-1.9c0.3-0.6,0.7-1.2,1.2-1.6&#xA;&#x9;&#x9;&#x9;&#x9;c0.5-0.5,1.2-0.9,2-1.2s1.7-0.4,2.7-0.4c1.3,0,2.5,0.2,3.5,0.5s2,0.7,3,1.3l-1.4,4.4c-0.8-0.6-1.7-1-2.5-1.2&#xA;&#x9;&#x9;&#x9;&#x9;c-0.8-0.3-1.6-0.4-2.4-0.4c-0.4,0-0.8,0.1-1.1,0.2s-0.4,0.4-0.4,0.7c0,0.2,0.1,0.4,0.3,0.6s0.4,0.4,0.8,0.6&#xA;&#x9;&#x9;&#x9;&#x9;c0.3,0.2,0.7,0.4,1.1,0.6c0.4,0.2,0.9,0.4,1.4,0.6c1,0.5,1.7,0.9,2.3,1.4c0.6,0.5,1.1,1,1.4,1.5s0.6,1,0.7,1.5s0.2,1,0.2,1.5&#xA;&#x9;&#x9;&#x9;&#x9;c0,1-0.2,1.8-0.6,2.5s-1,1.2-1.6,1.7c-0.7,0.4-1.4,0.7-2.2,0.9s-1.7,0.3-2.5,0.3c-1.4,0-2.7-0.2-3.9-0.6c-1.2-0.5-2.2-1-2.9-1.6&#xA;&#x9;&#x9;&#x9;&#x9;L9.8,25.4z"></path>
&#x9;&#x9;&#x9;<path class="st1" d="M39.5,18.7c-0.7-0.5-1.4-0.9-2.2-1.2c-0.8-0.3-1.5-0.4-2.2-0.4c-0.6,0-1.2,0.1-1.7,0.3c-0.5,0.2-1,0.5-1.5,1&#xA;&#x9;&#x9;&#x9;&#x9;c-0.4,0.4-0.8,1-1,1.6s-0.4,1.4-0.4,2.2c0,0.8,0.1,1.5,0.4,2.1s0.6,1.1,1,1.5c0.4,0.4,0.9,0.7,1.5,0.9c0.6,0.2,1.2,0.3,1.8,0.3&#xA;&#x9;&#x9;&#x9;&#x9;c0.8,0,1.5-0.1,2.3-0.4s1.4-0.7,2-1.1h0.1l1.5,4.1c-1,0.8-2,1.3-3.2,1.6c-1.1,0.3-2.3,0.5-3.4,0.5c-1.4,0-2.7-0.2-3.8-0.7&#xA;&#x9;&#x9;&#x9;&#x9;c-1.1-0.5-2.1-1.1-2.9-1.9s-1.4-1.8-1.9-2.9s-0.7-2.4-0.7-3.7c0-1.5,0.3-2.8,0.8-4s1.2-2.2,2-3.1c0.9-0.9,1.8-1.5,3-2&#xA;&#x9;&#x9;&#x9;&#x9;c1.1-0.5,2.3-0.7,3.6-0.7c1,0,2,0.1,3,0.4c1,0.3,2.1,0.8,3.4,1.5L39.5,18.7L39.5,18.7L39.5,18.7z"></path>
&#x9;&#x9;&#x9;<path class="st1" d="M61.1,31.3H56v-7h-6v7h-5V13h5.1v6.8h6V13h5.1L61.1,31.3L61.1,31.3z"></path>
&#x9;&#x9;&#x9;<path class="st1" d="M76.7,28.4h-6.1l-1.1,2.9h-5.1L71.5,13h4.3L83,31.3h-5.1L76.7,28.4z M72,24.6h3.3l-1.5-5.1h-0.2L72,24.6z"></path>
&#x9;&#x9;&#x9;<path class="st1" d="M86.2,31.3V13h6.3c1.3,0,2.6,0.2,3.8,0.6c1.2,0.4,2.2,1,3.1,1.8s1.6,1.8,2.1,2.9c0.5,1.2,0.8,2.5,0.8,4&#xA;&#x9;&#x9;&#x9;&#x9;c0,1.3-0.3,2.6-0.8,3.7s-1.2,2-2.1,2.8s-1.9,1.4-3.1,1.8s-2.5,0.6-3.9,0.6L86.2,31.3L86.2,31.3z M92.6,27c0.6,0,1.2-0.1,1.8-0.3&#xA;&#x9;&#x9;&#x9;&#x9;c0.6-0.2,1-0.5,1.5-1c0.4-0.4,0.7-0.9,1-1.5s0.3-1.2,0.3-1.9c0-0.9-0.1-1.6-0.4-2.2s-0.6-1.1-1.1-1.5c-0.4-0.4-0.9-0.7-1.5-0.9&#xA;&#x9;&#x9;&#x9;&#x9;s-1-0.3-1.5-0.3h-1.5V27H92.6z"></path>
&#x9;&#x9;&#x9;<path class="st1" d="M119.2,26.8h6.6v4.5h-11.7V13h5.1V26.8z"></path>
&#x9;&#x9;</g>
&#x9;&#x9;<g class="st0">
&#x9;&#x9;&#x9;<path class="st1" d="M140.7,28.4h-6.1l-1.1,2.9h-5.1l7.1-18.3h4.3l7.2,18.3h-5.1L140.7,28.4z M136.1,24.6h3.3l-1.5-5.1h-0.2&#xA;&#x9;&#x9;&#x9;&#x9;L136.1,24.6z"></path>
&#x9;&#x9;</g>
&#x9;&#x9;<g class="st0">
&#x9;&#x9;&#x9;<path class="st1" d="M159.5,22.2l-2.6,9.1H153L147.3,13h5.4l2.3,9.7h0.1l2.6-9.7h3.5l2.6,9.7h0.1l2.3-9.7h5.4L166,31.3h-3.9&#xA;&#x9;&#x9;&#x9;&#x9;L159.5,22.2C159.5,22.2,159.5,22.2,159.5,22.2z"></path>
&#x9;&#x9;</g>
&#x9;</g>
</g>
<rect x="2.2" y="2.1" class="st2" width="175.7" height="40.1"></rect>
</svg>